<?xml version="1.0" encoding="UTF-8"?>
<svg version="1.1" xmlns="http://www.w3.org/2000/svg" width="2000" height="2000">
<path d="M0 0 C1.82730061 0.17881917 3.65461212 0.35752697 5.48193359 0.53613281 C90.99959233 9.01450013 175.44516374 27.67333867 340 93 C341.00240723 93.47034668 342.00481445 93.94069336 343.03759766 94.42529297 C356.21362239 100.61082913 369.21024011 107.05011942 382 114 C382.98919434 114.5357666 383.97838867 115.0715332 384.99755859 115.62353516 C402.66837253 125.22565656 419.89355093 135.43515533 437 146 C438.56113502 146.95843579 440.12232458 147.91678276 441.68359375 148.875 C476.53150762 170.35882679 509.5146069 194.64596154 541.19580078 220.52783203 C542.78273046 221.82271511 544.37348737 223.11290478 545.96484375 224.40234375 C556.42913594 232.89977926 566.63744066 241.672826 576.5703125 250.78515625 C578.60515415 252.64006817 580.66321247 254.45428798 582.75 256.25 C595.79514726 267.63804223 608.03977236 279.88080363 620.26416016 292.13378906 C623.02001355 294.89505284 625.78124028 297.6508636 628.54296875 300.40625 C630.32063359 302.18457492 632.09798859 303.96320963 633.875 305.7421875 C634.68864014 306.55380341 635.50228027 307.36541931 636.34057617 308.20162964 C640.55128639 312.42953473 644.61353736 316.7282206 648.49734497 321.25923157 C650.87788993 324.01700194 653.3830542 326.6558217 655.875 329.3125 C660.31018016 334.07930174 664.50805154 338.97195965 668.5859375 344.05078125 C671.50672496 347.61905719 674.52939036 351.0897278 677.5625 354.5625 C682.52719239 360.26382933 687.35197048 366.03571433 692 372 C693.05855759 373.35028877 694.11715503 374.70054629 695.17578125 376.05078125 C702.91206501 385.9389004 710.54039414 395.90143999 718 406 C718.50321777 406.67933594 719.00643555 407.35867188 719.52490234 408.05859375 C729.13657598 421.07206679 738.11130054 434.4856223 747 448 C747.49709473 448.75071777 747.99418945 449.50143555 748.50634766 450.27490234 C763.03539712 472.21747902 776.38083519 494.91443475 789 518 C789.59490234 519.08152344 790.18980469 520.16304687 790.80273438 521.27734375 C832.27316023 596.81433621 863.06685857 678.17552649 906.74285889 904.29083252 C906.98793684 906.87290585 907.2433571 909.45377162 907.50048828 912.03466797 C913.09421034 969.4158428 912.78945739 1029.65240724 907 1087 C906.82118083 1088.82730061 906.64247303 1090.65461212 906.46386719 1092.48193359 C897.98549987 1177.99959233 879.32666133 1262.44516374 814 1427 C813.52965332 1428.00240723 813.05930664 1429.00481445 812.57470703 1430.03759766 C806.38917087 1443.21362239 799.94988058 1456.21024011 793 1469 C792.4642334 1469.98919434 791.9284668 1470.97838867 791.37646484 1471.99755859 C781.77434344 1489.66837253 771.56484467 1506.89355093 761 1524 C760.04156421 1525.56113502 759.08321724 1527.12232458 758.125 1528.68359375 C736.64117321 1563.53150762 712.35403846 1596.5146069 686.47216797 1628.19580078 C685.17728489 1629.78273046 683.88709522 1631.37348737 682.59765625 1632.96484375 C674.10022074 1643.42913594 665.327174 1653.63744066 656.21484375 1663.5703125 C654.35993183 1665.60515415 652.54571202 1667.66321247 650.75 1669.75 C639.36195777 1682.79514726 627.11919637 1695.03977236 614.86621094 1707.26416016 C612.10494716 1710.02001355 609.3491364 1712.78124028 606.59375 1715.54296875 C604.81542508 1717.32063359 603.03679037 1719.09798859 601.2578125 1720.875 C600.04038864 1722.09546021 600.04038864 1722.09546021 598.79837036 1723.34057617 C594.57046527 1727.55128639 590.2717794 1731.61353736 585.74076843 1735.49734497 C582.98299806 1737.87788993 580.3441783 1740.3830542 577.6875 1742.875 C572.91589105 1747.31465293 568.0183201 1751.51659141 562.93359375 1755.59765625 C559.45096296 1758.44961089 556.07227552 1761.40830062 552.6875 1764.375 C546.20426614 1770.03684353 539.53645061 1775.40188167 532.72509766 1780.66162109 C530.99995912 1782.00003172 529.28551319 1783.35097558 527.57421875 1784.70703125 C518.83422898 1791.63151555 509.96739659 1798.37283436 501 1805 C500.31486328 1805.50756836 499.62972656 1806.01513672 498.92382812 1806.53808594 C485.91623568 1816.14527793 472.50819132 1825.11536945 459 1834 C458.24928223 1834.49709473 457.49856445 1834.99418945 456.72509766 1835.50634766 C434.78252098 1850.03539712 412.08556525 1863.38083519 389 1876 C387.91847656 1876.59490234 386.83695313 1877.18980469 385.72265625 1877.80273438 C310.18566379 1919.27316023 228.82447351 1950.06685857 2.70916748 1993.74285889 C0.12709415 1993.98793684 -2.45377162 1994.2433571 -5.03466797 1994.50048828 C-62.4158428 2000.09421034 -122.65240724 1999.78945739 -180 1994 C-181.82730061 1993.82118083 -183.65461212 1993.64247303 -185.48193359 1993.46386719 C-270.99959233 1984.98549987 -355.44516374 1966.32666133 -520 1901 C-521.00240723 1900.52965332 -522.00481445 1900.05930664 -523.03759766 1899.57470703 C-536.21362239 1893.38917087 -549.21024011 1886.94988058 -562 1880 C-562.98919434 1879.4642334 -563.97838867 1878.9284668 -564.99755859 1878.37646484 C-582.66837253 1868.77434344 -599.89355093 1858.56484467 -617 1848 C-618.56113502 1847.04156421 -620.12232458 1846.08321724 -621.68359375 1845.125 C-656.53150762 1823.64117321 -689.5146069 1799.35403846 -721.19580078 1773.47216797 C-722.78273046 1772.17728489 -724.37348737 1770.88709522 -725.96484375 1769.59765625 C-736.42913594 1761.10022074 -746.63744066 1752.327174 -756.5703125 1743.21484375 C-758.60515415 1741.35993183 -760.66321247 1739.54571202 -762.75 1737.75 C-775.79514726 1726.36195777 -788.03977236 1714.11919637 -800.26416016 1701.86621094 C-803.02001355 1699.10494716 -805.78124028 1696.3491364 -808.54296875 1693.59375 C-810.32063359 1691.81542508 -812.09798859 1690.03679037 -813.875 1688.2578125 C-814.68864014 1687.44619659 -815.50228027 1686.63458069 -816.34057617 1685.79837036 C-820.55128639 1681.57046527 -824.61353736 1677.2717794 -828.49734497 1672.74076843 C-830.87788993 1669.98299806 -833.3830542 1667.3441783 -835.875 1664.6875 C-840.31465293 1659.91589105 -844.51659141 1655.0183201 -848.59765625 1649.93359375 C-851.44961089 1646.45096296 -854.40830062 1643.07227552 -857.375 1639.6875 C-863.03684353 1633.20426614 -868.40188167 1626.53645061 -873.66162109 1619.72509766 C-875.00003172 1617.99995912 -876.35097558 1616.28551319 -877.70703125 1614.57421875 C-884.63151555 1605.83422898 -891.37283436 1596.96739659 -898 1588 C-898.50756836 1587.31486328 -899.01513672 1586.62972656 -899.53808594 1585.92382812 C-909.14527793 1572.91623568 -918.11536945 1559.50819132 -927 1546 C-927.49709473 1545.24928223 -927.99418945 1544.49856445 -928.50634766 1543.72509766 C-943.03539712 1521.78252098 -956.38083519 1499.08556525 -969 1476 C-969.89235352 1474.37771484 -969.89235352 1474.37771484 -970.80273438 1472.72265625 C-1012.27316023 1397.18566379 -1043.06685857 1315.82447351 -1086.74285889 1089.70916748 C-1086.98793684 1087.12709415 -1087.2433571 1084.54622838 -1087.50048828 1081.96533203 C-1093.09421034 1024.5841572 -1092.78945739 964.34759276 -1087 907 C-1086.82118083 905.17269939 -1086.64247303 903.34538788 -1086.46386719 901.51806641 C-1077.98549987 816.00040767 -1059.32666133 731.55483626 -994 567 C-993.52965332 565.99759277 -993.05930664 564.99518555 -992.57470703 563.96240234 C-986.38917087 550.78637761 -979.94988058 537.78975989 -973 525 C-972.4642334 524.01080566 -971.9284668 523.02161133 -971.37646484 522.00244141 C-961.77434344 504.33162747 -951.56484467 487.10644907 -941 470 C-940.04156421 468.43886498 -939.08321724 466.87767542 -938.125 465.31640625 C-916.64117321 430.46849238 -892.35403846 397.4853931 -866.47216797 365.80419922 C-865.17728489 364.21726954 -863.88709522 362.62651263 -862.59765625 361.03515625 C-854.10022074 350.57086406 -845.327174 340.36255934 -836.21484375 330.4296875 C-834.35993183 328.39484585 -832.54571202 326.33678753 -830.75 324.25 C-819.36195777 311.20485274 -807.11919637 298.96022764 -794.86621094 286.73583984 C-792.10494716 283.97998645 -789.3491364 281.21875972 -786.59375 278.45703125 C-784.81542508 276.67936641 -783.03679037 274.90201141 -781.2578125 273.125 C-780.44619659 272.31135986 -779.63458069 271.49771973 -778.79837036 270.65942383 C-774.57046527 266.44871361 -770.2717794 262.38646264 -765.74076843 258.50265503 C-762.98299806 256.12211007 -760.3441783 253.6169458 -757.6875 251.125 C-752.91589105 246.68534707 -748.0183201 242.48340859 -742.93359375 238.40234375 C-739.45096296 235.55038911 -736.07227552 232.59169938 -732.6875 229.625 C-726.20426614 223.96315647 -719.53645061 218.59811833 -712.72509766 213.33837891 C-710.99995912 211.99996828 -709.28551319 210.64902442 -707.57421875 209.29296875 C-698.83422898 202.36848445 -689.96739659 195.62716564 -681 189 C-680.31486328 188.49243164 -679.62972656 187.98486328 -678.92382812 187.46191406 C-665.91623568 177.85472207 -652.50819132 168.88463055 -639 160 C-638.24928223 159.50290527 -637.49856445 159.00581055 -636.72509766 158.49365234 C-614.78252098 143.96460288 -592.08556525 130.61916481 -569 118 C-567.37771484 117.10764648 -567.37771484 117.10764648 -565.72265625 116.19726562 C-490.18566379 74.72683977 -408.82447351 43.93314143 -182.70916748 0.25714111 C-180.12709415 0.01206316 -177.54622838 -0.2433571 -174.96533203 -0.50048828 C-117.5841572 -6.09421034 -57.34759276 -5.78945739 0 0 Z " fill="#26C1A2" transform="translate(1090,3)"/>
<path d="M0 0 C2.45503251 -0.00514278 4.91006133 -0.01242676 7.36508179 -0.02168274 C13.32280241 -0.03824427 19.28007655 -0.0315927 25.23775869 -0.01359452 C30.08343127 0.00047458 34.92901484 0.00431507 39.77470589 0.00096321 C40.46636649 0.00048577 41.1580271 0.00000833 41.87064712 -0.00048358 C43.27608849 -0.00151 44.68152984 -0.00256536 46.08697117 -0.00364935 C58.49473259 -0.01220283 70.90233571 0.00441374 83.31005859 0.03417969 C95.32705333 0.06300756 107.34382001 0.07010186 119.36083984 0.0546875 C132.47115323 0.0378936 145.58135851 0.03392404 158.69167477 0.05139786 C160.09203246 0.05324209 161.49239016 0.05507682 162.89274788 0.05690193 C163.92603528 0.05827007 163.92603528 0.05827007 164.98019717 0.05966584 C169.81478856 0.06525194 174.64932685 0.06198207 179.48391533 0.05535698 C186.00198408 0.04677891 192.5197746 0.05989145 199.03780746 0.08720589 C201.42418892 0.09406832 203.81060103 0.09421081 206.19698143 0.08699036 C236.9013179 0.0048224 236.9013179 0.0048224 248.90063477 11.63110352 C254.15078581 18.8878058 258.16133631 26.42270627 258.14208984 35.52075195 C258.14254807 36.6942218 258.14300629 37.86769165 258.14347839 39.07672119 C258.13166031 40.36826111 258.11984222 41.65980103 258.10766602 42.99047852 C258.10058587 44.39874194 258.09365856 45.80700614 258.08686829 47.215271 C257.95387721 66.97799344 257.28332871 86.7348146 256.68946457 106.48768616 C256.40747586 115.93116016 256.13796806 125.37500604 255.86621284 134.81877899 C255.79518739 137.28475166 255.72399264 139.75071945 255.65263176 142.21668243 C254.85255279 169.86710183 254.13733047 197.51953159 253.43273544 225.1725235 C253.15415269 236.09365487 252.87316922 247.01472492 252.59204102 257.93579102 C252.54739181 259.67072123 252.54739181 259.67072123 252.50184059 261.44070053 C251.9664851 282.2265098 251.41626424 303.0118609 250.83696365 323.79649353 C250.77703703 325.9555816 250.71784812 328.11468859 250.65890503 330.27380371 C250.55180562 334.1924522 250.44132455 338.11100103 250.33032227 342.02954102 C250.30127304 343.10027863 250.27222382 344.17101624 250.24229431 345.27420044 C250.04222148 352.1842833 249.74498036 359.08671234 249.41870117 365.99169922 C248.86516989 377.81204293 248.50841328 389.63465074 248.18188477 401.46313477 C248.11856089 403.71327525 248.0551221 405.9634125 247.99157715 408.21354675 C247.85927519 412.91381519 247.72832895 417.61411882 247.59838867 422.31445312 C247.43624662 428.17600332 247.27076928 434.0374534 247.10429382 439.89888191 C246.40410783 464.60493386 245.78294952 489.31006308 245.30943298 514.02153397 C245.07352198 526.26139734 244.77766159 538.4897909 244.2755127 550.72201538 C243.88229472 560.47722284 243.63601065 570.2343452 243.40063477 579.99438477 C243.36969727 581.27050943 243.36969727 581.27050943 243.33813477 582.5724144 C243.16851501 589.58464451 243.00254577 596.59695993 242.83813477 603.60931396 C242.69493026 609.71690241 242.54965556 615.82443529 242.40063477 621.93188477 C242.38021748 622.77040922 242.35980019 623.60893368 242.33876419 624.47286797 C242.08470457 634.78334318 241.74935706 645.08187051 241.23251343 655.38305664 C240.8192011 663.77965953 240.69312778 672.17454584 240.57043457 680.57958984 C240.40329864 691.26444855 240.15085592 701.94792138 239.90063477 712.63110352 C239.88100174 713.47195244 239.86136871 714.31280136 239.84114075 715.17913055 C239.56455669 726.95111813 239.26048492 738.72202108 238.91384315 750.49216557 C238.76494234 755.55783806 238.62400691 760.62342779 238.50299072 765.68984985 C238.38694174 770.52933534 238.24789112 775.36764967 238.09225082 780.20601845 C238.03810398 782.00842215 237.99194767 783.81108648 237.95441055 785.61391258 C237.70623501 797.21478349 237.00904971 807.26789836 228.27563477 815.94360352 C220.30649229 823.42793124 210.88708813 825.78065212 200.28671265 825.77827454 C199.4083033 825.78195122 198.52989394 825.78562791 197.62486613 825.78941602 C194.67560472 825.80044645 191.72637855 825.80429563 188.77709961 825.80810547 C186.66468189 825.81437063 184.55226527 825.82101748 182.43984985 825.82801819 C175.49709846 825.84905571 168.55434685 825.85942069 161.61157227 825.86938477 C159.22078057 825.87343252 156.829989 825.87754945 154.43919754 825.88173485 C143.2062477 825.90078629 131.97330443 825.9150171 120.74034154 825.92334682 C107.77818835 825.93311769 94.81620599 825.95943367 81.85411298 825.99984771 C71.83272608 826.03001963 61.81138812 826.04481675 51.78995669 826.04812783 C45.80589191 826.05047719 39.82200964 826.05942302 33.83799362 826.084589 C28.20565681 826.10789318 22.5736224 826.11209335 16.94124985 826.10182762 C14.87813816 826.10133272 12.81501146 826.1076397 10.7519455 826.12138367 C-3.01535099 826.20794149 -13.66153438 825.86356148 -24.12670898 815.89672852 C-32.1127486 806.72464341 -34.51188679 794.45735203 -34.68359375 782.65234375 C-34.71011961 781.59532792 -34.73664547 780.53831209 -34.76397514 779.44926548 C-34.84855564 775.94623957 -34.91346429 772.44314033 -34.97827148 768.93969727 C-35.03462894 766.43731031 -35.09219815 763.93495039 -35.15089417 761.43261719 C-35.27341409 756.09290231 -35.38751155 750.75311222 -35.49371338 745.41305542 C-35.64647786 737.73176834 -35.81498388 730.05088819 -35.98710108 722.37001336 C-36.33524705 706.80574106 -36.65898529 691.24100714 -36.97597432 675.67607349 C-37.11831376 668.68969158 -37.26331454 661.70336541 -37.40844727 654.71704102 C-37.50471337 650.0738134 -37.60088796 645.43058388 -37.69702148 640.78735352 C-37.72007166 639.67426378 -37.74312183 638.56117405 -37.7668705 637.41435432 C-37.98270293 626.97944191 -38.19752615 616.54452787 -38.39744854 606.1092968 C-38.47001377 602.32921036 -38.54421453 598.54915672 -38.61851311 594.769104 C-38.66664879 592.28359816 -38.71226506 589.79805627 -38.75770569 587.3125 C-38.93417648 578.12721937 -39.22909124 568.95147104 -39.58789062 559.77148438 C-40.12698123 545.83092825 -40.4234093 531.89055632 -40.67519927 517.9422245 C-40.74052705 514.36016696 -40.80903987 510.77817015 -40.87727356 507.19616699 C-40.99552122 500.97456946 -41.11246583 494.7529488 -41.22857666 488.53131104 C-41.54539957 471.57482721 -41.87421811 454.61857327 -42.20483398 437.66235352 C-42.23082987 436.32780963 -42.23082987 436.32780963 -42.25735092 434.96630526 C-43.1128391 391.07306381 -44.05707979 347.18180835 -45.02537006 303.29092562 C-45.17966701 296.29433248 -45.33283685 289.2977153 -45.48550415 282.30108643 C-45.69278533 272.80493866 -45.90250229 263.30884695 -46.11389732 253.81278992 C-46.19149142 250.32459757 -46.26824312 246.83638845 -46.34418678 243.34815979 C-46.70639399 226.73781408 -47.11507669 210.13562759 -47.76644325 193.53354645 C-48.09589072 185.06757828 -48.2891265 176.61078625 -48.38061523 168.13891602 C-48.39883885 166.72239711 -48.41744666 165.3058831 -48.43640137 163.88937378 C-48.49428708 159.51165795 -48.54724871 155.13389132 -48.59936523 150.75610352 C-48.66840648 144.96698738 -48.74000607 139.1779176 -48.81811523 133.38891602 C-48.82764662 132.67861111 -48.837178 131.9683062 -48.84699821 131.2364769 C-48.98281969 121.43033905 -49.2374144 111.63495047 -49.60327148 101.83422852 C-50.09650783 88.52842387 -50.41594976 75.2292645 -50.50439453 61.91430664 C-50.52626539 59.45029945 -50.56069547 56.98637547 -50.60693359 54.52270508 C-50.94302994 36.26107179 -50.60841815 22.03181389 -37.93139648 7.77954102 C-26.24334384 -1.08725754 -14.04591689 -0.07466818 0 0 Z " fill="#FEFEFE" transform="translate(1145.099365234375,338.368896484375)"/>
<path d="M0 0 C1.01617643 -0.00694553 2.03235286 -0.01389106 3.07932252 -0.02104706 C6.45921232 -0.03923497 9.83839367 -0.02907527 13.2183075 -0.01878357 C15.65186587 -0.02584624 18.08541985 -0.03459271 20.51896667 -0.04489136 C26.42825811 -0.06502762 32.33737179 -0.06642192 38.24667541 -0.05826581 C43.05374309 -0.05194851 47.86075476 -0.05311865 52.66782188 -0.05953789 C53.35377854 -0.06043954 54.03973519 -0.0613412 54.7464784 -0.06227018 C56.14032157 -0.06412152 57.53416473 -0.06598408 58.92800786 -0.06785773 C71.98056885 -0.08441299 85.03302156 -0.07573714 98.08557602 -0.05887216 C110.00376091 -0.0441844 121.92169348 -0.05879448 133.83984587 -0.08764232 C146.10201725 -0.11709983 158.36407244 -0.12798968 170.62627763 -0.11846012 C172.0157157 -0.11743766 173.40515379 -0.11644304 174.7945919 -0.11547661 C175.81981839 -0.11476202 175.81981839 -0.11476202 176.86575652 -0.114033 C181.66031875 -0.11187685 186.45476999 -0.1216304 191.24930763 -0.13624763 C197.71649613 -0.15569056 204.18333153 -0.14858405 210.65050507 -0.12404823 C213.01712246 -0.11905603 215.38377576 -0.12248845 217.7503643 -0.13519669 C240.6629345 -0.24845151 240.6629345 -0.24845151 251.43193054 5.5146637 C252.30174214 5.96051032 253.17155375 6.40635695 254.06772327 6.86571407 C261.66284983 10.9748081 265.11840056 18.29634494 268.50663757 25.93873596 C269.87138003 31.21297942 269.69782493 36.30222811 269.64677429 41.72950745 C269.63709877 43.70901649 269.63709877 43.70901649 269.62722778 45.72851562 C269.4676036 68.86721658 268.72117094 92.00450972 268.09953308 115.1341095 C267.95909586 120.40278892 267.82326589 125.6715829 267.68751621 130.94038486 C267.55452153 136.08741769 267.41929187 141.2343899 267.28335381 146.38134575 C267.21946212 148.8053496 267.15607497 151.22936682 267.09324837 153.65339851 C266.80533531 164.70259295 266.4957295 175.74552764 265.9526825 186.78541565 C265.19032359 202.47707037 264.84075575 218.18490904 264.41942048 233.88860369 C264.29382654 238.55406493 264.16596359 243.21946411 264.03842163 247.88487244 C263.79316192 256.870141 263.55010689 265.85546785 263.30788499 274.84081876 C263.11223556 282.09654407 262.91562087 289.35224268 262.71839905 296.60792542 C261.36033616 346.57598248 260.02481233 396.54455208 258.74443054 446.5146637 C258.71477707 447.67196487 258.6851236 448.82926605 258.65457153 450.02163696 C258.59542018 452.33046204 258.53627262 454.63928721 258.47712898 456.94811249 C257.79654003 483.51473931 257.10879706 510.08107537 256.36915207 536.64613342 C256.30876588 538.82348682 256.24908761 541.0008584 256.18965149 543.17823792 C256.08274349 547.08992865 255.97244539 551.00151943 255.86161804 554.9131012 C255.83257889 555.98345612 255.80353973 557.05381104 255.77362061 558.15660095 C255.57354321 565.06707086 255.2762944 571.96988597 254.94999695 578.8752594 C254.39646566 590.69560311 254.03970905 602.51821092 253.71318054 614.34669495 C253.64985666 616.59683543 253.58641788 618.84697268 253.52287292 621.09710693 C253.39057097 625.79737537 253.25962472 630.497679 253.12968445 635.19801331 C252.96754199 641.05957839 252.80206071 646.92104328 252.63559341 652.78248692 C251.96666563 676.38437105 251.35232792 699.98598467 250.88505554 723.5927887 C250.86478554 724.61546215 250.84451553 725.6381356 250.82363129 726.69179916 C250.74568372 730.63238903 250.66803551 734.57298472 250.59057236 738.51358414 C250.36302903 750.06380298 250.13113433 761.6132339 249.7766571 773.16041565 C249.71150379 775.42449342 249.65605994 777.6888648 249.60868835 779.9533844 C249.53557926 783.37977995 249.4323321 786.80411509 249.32255554 790.22950745 C249.30034943 791.72610146 249.30034943 791.72610146 249.2776947 793.25292969 C248.88745714 803.34436723 244.87450929 810.97170321 237.54911804 817.8271637 C234.40890902 820.33006093 231.1416782 822.01891713 227.43193054 823.5146637 C226.74684795 823.85556125 226.06176537 824.1964588 225.3559227 824.54768658 C221.46072689 825.83584503 217.74717593 825.79406052 213.69102478 825.77536011 C212.81105544 825.77918565 211.9310861 825.7830112 211.02445102 825.78695267 C208.07590686 825.79727106 205.12755785 825.79329267 202.17900085 825.7893219 C200.06481242 825.79366909 197.95062555 825.79885226 195.83644104 825.80480957 C190.09249664 825.81821206 184.34861798 825.81877669 178.60466099 825.81624627 C173.80856952 825.81517711 169.01249138 825.82005869 164.21640277 825.82485169 C152.89891232 825.83595185 141.58145505 825.83638184 130.26396179 825.83033752 C118.59366454 825.82430049 106.92348793 825.83660076 95.25321126 825.85790759 C85.23096424 825.8755319 75.20875558 825.88152352 65.18649364 825.87826985 C59.20196043 825.8764577 53.21751324 825.87908618 47.23299408 825.89298439 C41.60231406 825.905571 35.97182174 825.90361058 30.34114456 825.8905735 C28.27762157 825.88820976 26.21408535 825.89093513 24.15057755 825.89919662 C21.32709209 825.90968312 18.50423419 825.90154796 15.68077087 825.8888855 C14.86995221 825.89625978 14.05913355 825.90363407 13.22374463 825.91123182 C4.00917248 825.82468211 -3.90993209 822.96165506 -10.56806946 816.5146637 C-18.9384371 806.42382788 -21.64665607 795.39593563 -21.89350891 782.61036682 C-21.91658395 781.59891633 -21.93965899 780.58746584 -21.96343327 779.54536533 C-22.0402913 776.12896068 -22.1107738 772.71245347 -22.18135071 769.2959137 C-22.23570002 766.82320309 -22.2904498 764.35050125 -22.3455658 761.87780762 C-22.46513917 756.47425024 -22.58197102 751.07064375 -22.69645691 745.66697693 C-22.86748618 737.59659784 -23.04373657 729.5263387 -23.2212044 721.45609891 C-23.50435906 708.576592 -23.78453839 695.69702249 -24.06280744 682.81740916 C-24.51914432 661.69926702 -24.98452367 640.58133047 -25.45276451 619.46344924 C-25.55442382 614.87845541 -25.65603015 610.2934604 -25.75764465 605.70846558 C-25.79869568 603.85621611 -25.83974691 602.00396664 -25.88079834 600.15171719 C-25.90119864 599.23124092 -25.92159893 598.31076465 -25.94261742 597.36239517 C-25.98398146 595.49612669 -26.02534932 593.62985829 -26.06672096 591.76358998 C-26.38346187 577.47531125 -26.69925846 563.1870119 -27.01435852 548.8986969 C-27.03549524 547.94027999 -27.05663197 546.98186309 -27.07840919 545.99440324 C-27.16409393 542.10906997 -27.24977454 538.22373661 -27.33545113 534.33840317 C-28.34422538 488.59234564 -29.35939072 442.84643179 -30.37702942 397.10057068 C-31.08888652 365.10026752 -31.79991443 333.0999459 -32.51065636 301.09961796 C-32.54884952 299.3800179 -32.58704353 297.66041786 -32.62523842 295.94081783 C-33.07251201 275.80366682 -33.51939239 255.66650719 -33.96480846 235.52931499 C-34.12283727 228.3850516 -34.28100262 221.24079133 -34.43968201 214.09654236 C-34.58436674 207.58190844 -34.72857964 201.06726421 -34.87236595 194.5526104 C-34.92687432 192.08369163 -34.9814801 189.61477502 -35.03618813 187.14586067 C-35.32114709 174.26813572 -35.59406343 161.39034194 -35.83613586 148.51173401 C-35.85766755 147.38017694 -35.87919924 146.24861988 -35.9013834 145.08277321 C-36.00165626 139.80946357 -36.09952178 134.53614045 -36.19152832 129.26268005 C-36.38512749 118.68705123 -36.7331991 108.13071585 -37.22050571 97.56450558 C-37.55970558 90.09059589 -37.74219983 82.63374731 -37.77119446 75.15138245 C-37.77689453 73.94246841 -37.7825946 72.73355438 -37.78846741 71.48800659 C-37.79775528 68.98396134 -37.80438486 66.47990475 -37.80830383 63.97584534 C-37.81817572 60.16110221 -37.84941578 56.34686334 -37.88056946 52.53224182 C-37.88708759 50.07195848 -37.8923427 47.6116714 -37.89619446 45.15138245 C-37.90854126 44.02834213 -37.92088806 42.90530182 -37.93360901 41.74822998 C-37.90015073 29.86161674 -34.64530016 18.57209289 -26.75166321 9.4052887 C-19.0574054 2.13071768 -10.34779121 -0.09160845 0 0 Z " fill="#FEFEFE" transform="translate(633.5680694580078,339.48533630371094)"/>
<path d="M0 0 C2.28769593 -0.00486207 4.5753876 -0.01230675 6.86306763 -0.02212524 C13.04914491 -0.04086568 19.234585 -0.02215837 25.42061234 0.00453901 C31.90923346 0.02725169 38.39782513 0.01894654 44.88647461 0.01504517 C55.78086911 0.01328185 66.67500871 0.03524295 77.56933594 0.07226562 C88.75495945 0.11026771 99.94029311 0.12443894 111.12597656 0.11328125 C124.63932496 0.0998414 138.15246301 0.10649926 151.665802 0.1314888 C156.81383646 0.14075204 161.96179226 0.14254097 167.10983276 0.13831711 C173.17735525 0.13453598 179.24450855 0.15087625 185.31194687 0.1824379 C187.5322301 0.19088666 189.75255091 0.19264967 191.97284317 0.1870575 C218.56910934 0.13025684 218.56910934 0.13025684 229.6796875 9.38525391 C231.4060587 10.89326302 231.4060587 10.89326302 233.97265625 12.05712891 C237.8084482 14.78256003 239.97788546 18.73478215 242.34765625 22.74462891 C242.71503906 23.35435547 243.08242187 23.96408203 243.4609375 24.59228516 C245.81553869 30.30763871 245.49449014 36.74791452 245.48809814 42.83320618 C245.49255483 44.1730411 245.49255483 44.1730411 245.49710155 45.5399434 C245.50574618 48.52134883 245.50729318 51.50271391 245.50878906 54.48413086 C245.51342016 56.62654709 245.51844521 58.7689625 245.52383423 60.91137695 C245.5369303 66.72343168 245.54339749 72.53547488 245.54784489 78.34754205 C245.55077953 81.98077756 245.55488503 85.61400995 245.55934906 89.24724388 C245.57301532 100.62114456 245.5826868 111.99503806 245.58655095 123.36894637 C245.59103265 136.48724917 245.60858948 149.60544781 245.63755155 162.72371894 C245.6591784 172.8725545 245.66925574 183.02136077 245.67059207 193.17021912 C245.67163917 199.22797955 245.6775273 205.28564195 245.69541168 211.34337807 C245.71191011 217.04220064 245.71403918 222.74085167 245.70527267 228.43968964 C245.70450331 230.52698667 245.70883167 232.614293 245.71873093 234.7015667 C245.73148712 237.55961394 245.72555371 240.41705691 245.71514893 243.27510071 C245.72723353 244.50242234 245.72723353 244.50242234 245.73956227 245.75453836 C245.64238334 257.23427042 241.36746566 265.93221801 233.97265625 274.49462891 C230.64858234 277.34383511 227.17052214 279.62081452 223.34765625 281.74462891 C222.80820954 282.06973562 222.26876283 282.39484233 221.71296924 282.72980076 C216.22512249 285.80900029 211.74654799 286.31336633 205.52467346 286.24583435 C204.56455335 286.25136875 203.60443324 286.25690314 202.61521858 286.26260525 C199.41321523 286.27616694 196.2119974 286.26126647 193.01000977 286.24633789 C190.70818756 286.25012271 188.40636763 286.25562408 186.10455322 286.26271057 C179.86278916 286.27666185 173.62130085 286.26549707 167.37955213 286.24899936 C160.84278989 286.23513746 154.30604348 286.24161031 147.76927185 286.24513245 C136.79136893 286.2485637 125.81356938 286.23445352 114.83569336 286.21118164 C103.55375101 286.18726804 92.27195338 286.18017594 80.98999023 286.19067383 C67.37756386 286.20331761 53.76523914 286.20077661 40.15281487 286.18501472 C34.96044284 286.17926253 29.76811926 286.17933163 24.57574654 286.18408012 C18.45829096 286.18885986 12.34103515 286.17870664 6.22361755 286.15712547 C3.98110566 286.15157081 1.73857453 286.15108014 -0.50393867 286.15607834 C-3.57030503 286.16205459 -6.63606545 286.14948072 -9.70237732 286.13230896 C-10.58507764 286.13831901 -11.46777796 286.14432905 -12.37722677 286.15052122 C-22.43859652 286.048406 -29.1076671 283.15340685 -36.35546875 276.20947266 C-44.36653439 267.61256378 -48.12123253 258.80343658 -48.0400238 247.11819458 C-48.04540934 246.1791978 -48.05079488 245.24020101 -48.05634362 244.27274978 C-48.0705929 241.14230987 -48.06352685 238.01229462 -48.05639648 234.88183594 C-48.06210165 232.63089662 -48.06906647 230.37996019 -48.07719421 228.12902832 C-48.09512509 222.0256777 -48.09395724 215.92247086 -48.08825183 209.81910181 C-48.0851597 204.7197389 -48.09125276 199.62040359 -48.09729058 194.52104461 C-48.11213666 181.8010332 -48.10852255 169.08112336 -48.09642727 156.36111818 C-48.08649784 145.32995721 -48.09943262 134.29896405 -48.12336146 123.26782896 C-48.14778108 111.92444083 -48.156954 100.58115286 -48.15070873 89.23773086 C-48.14734055 82.87592444 -48.14974522 76.51425662 -48.16695976 70.15246964 C-48.18244476 64.16876582 -48.1784557 58.18538192 -48.15965462 52.20169067 C-48.15597301 50.00958186 -48.15906465 47.81744927 -48.16954041 45.6253624 C-48.18278113 42.62488547 -48.17117502 39.62546288 -48.15354919 36.62503052 C-48.1631542 35.76469778 -48.17275921 34.90436505 -48.18265527 34.01796162 C-48.08099725 25.56406486 -45.34853246 17.83811179 -39.65234375 11.49462891 C-38.66234375 10.34220703 -38.66234375 10.34220703 -37.65234375 9.16650391 C-25.74264437 -0.44809715 -14.69420066 -0.10955853 0 0 Z " fill="#FEFEFE" transform="translate(1153.65234375,1318.25537109375)"/>
<path d="M0 0 C0.95477429 -0.00623996 1.90954857 -0.01247993 2.89325541 -0.01890898 C6.07132032 -0.03477882 9.24861183 -0.02225792 12.42668152 -0.00964355 C14.71393275 -0.01506743 17.00118049 -0.02219158 19.28842163 -0.03088379 C25.48693126 -0.04909131 31.68517402 -0.04205921 37.88368821 -0.02936745 C44.38034156 -0.01922288 50.87697244 -0.02863752 57.37362671 -0.03491211 C68.98444189 -0.04265143 80.59513564 -0.03023601 92.20593169 -0.00987476 C102.71349427 0.00798221 113.22087997 0.00490102 123.72843933 -0.0135498 C135.95171987 -0.03500355 148.17487454 -0.04289769 160.39817351 -0.03110075 C166.86062372 -0.0248788 173.32295237 -0.02399419 179.78539467 -0.0372467 C185.86516056 -0.04884373 191.94459423 -0.04070882 198.02432442 -0.01766968 C200.24945272 -0.01240248 202.4746092 -0.01386205 204.6997261 -0.02272034 C231.3214178 -0.11889005 231.3214178 -0.11889005 242.44694519 9.14855957 C244.17331639 10.65656869 244.17331639 10.65656869 246.73991394 11.82043457 C250.57570589 14.54586569 252.74514315 18.49808781 255.11491394 22.50793457 C255.48229675 23.11766113 255.84967957 23.7273877 256.22819519 24.35559082 C258.58279638 30.07094437 258.26174783 36.51122019 258.25535583 42.59651184 C258.25981252 43.93634676 258.25981252 43.93634676 258.26435924 45.30324906 C258.27300387 48.28465449 258.27455087 51.26601957 258.27604675 54.24743652 C258.28067785 56.38985275 258.2857029 58.53226816 258.29109192 60.67468262 C258.304188 66.48673735 258.31065518 72.29878054 258.31510258 78.11084771 C258.31803722 81.74408323 258.32214272 85.37731561 258.32660675 89.01054955 C258.34027301 100.38445022 258.34994449 111.75834372 258.35380864 123.13225204 C258.35829034 136.25055483 258.37584717 149.36875348 258.40480924 162.48702461 C258.42643609 172.63586016 258.43651343 182.78466643 258.43784976 192.93352479 C258.43889686 198.99128521 258.44478499 205.04894762 258.46266937 211.10668373 C258.4791678 216.8055063 258.48129687 222.50415734 258.47253036 228.2029953 C258.471761 230.29029233 258.47608936 232.37759866 258.48598862 234.46487236 C258.49874481 237.3229196 258.4928114 240.18036258 258.48240662 243.03840637 C258.49449122 244.26572801 258.49449122 244.26572801 258.50681996 245.51784402 C258.40964103 256.99757609 254.13472335 265.69552367 246.73991394 274.25793457 C243.41584003 277.10714078 239.93777983 279.38412019 236.11491394 281.50793457 C235.57546723 281.83304128 235.03602052 282.15814799 234.48022693 282.49310642 C228.99238018 285.57230595 224.51380568 286.076672 218.29193115 286.00914001 C217.33181104 286.01467441 216.37169093 286.02020881 215.38247627 286.02591091 C212.18047292 286.0394726 208.97925509 286.02457214 205.77726746 286.00964355 C203.47544525 286.01342837 201.17362532 286.01892975 198.87181091 286.02601624 C192.63004685 286.03996751 186.38855855 286.02880273 180.14680982 286.01230502 C173.61004758 285.99844313 167.07330117 286.00491597 160.53652954 286.00843811 C149.55862662 286.01186936 138.58082707 285.99775919 127.60295105 285.9744873 C116.3210087 285.9505737 105.03921107 285.94348161 93.75724792 285.95397949 C80.14482155 285.96662327 66.53249683 285.96408227 52.92007256 285.94832039 C47.72770053 285.94256819 42.53537695 285.94263729 37.34300423 285.94738579 C31.22554865 285.95216552 25.10829284 285.94201231 18.99087524 285.92043114 C16.74836335 285.91487648 14.50583222 285.91438581 12.26331902 285.919384 C9.19695267 285.92536025 6.13119224 285.91278638 3.06488037 285.89561462 C2.18218005 285.90162467 1.29947973 285.90763471 0.39003092 285.91382688 C-9.67133883 285.81171166 -16.34040941 282.91671251 -23.58821106 275.97277832 C-31.60438482 267.37038777 -35.34641711 258.55325855 -35.29295349 246.86372375 C-35.30045573 245.92276012 -35.30795796 244.98179648 -35.31568754 244.01231879 C-35.33693379 240.87509316 -35.33690434 237.73824422 -35.33674622 234.60095215 C-35.34736542 232.34502587 -35.35919661 230.08910502 -35.37214661 227.83319092 C-35.40288411 221.71520242 -35.41406385 215.59733089 -35.41978884 209.47927308 C-35.42414773 205.65319322 -35.43252608 201.8271435 -35.44228745 198.00107384 C-35.46908123 187.39020646 -35.49173296 176.77936361 -35.49416542 166.1684618 C-35.49432099 165.49049488 -35.49447657 164.81252795 -35.49463686 164.11401657 C-35.49492789 162.73985207 -35.49521327 161.36568757 -35.49549301 159.99152306 C-35.49563586 159.30946572 -35.49577872 158.62740837 -35.4959259 157.92468262 C-35.49606557 157.24178465 -35.49620524 156.55888669 -35.49634914 155.85529485 C-35.49948254 144.79695191 -35.53605823 133.73900114 -35.58756216 122.6807876 C-35.64012111 111.3046005 -35.66565427 99.92866883 -35.66571653 88.55233496 C-35.6662537 82.17407797 -35.67775914 75.79630843 -35.71689224 69.41816139 C-35.75285018 63.41539692 -35.75498125 57.41353876 -35.73171997 51.41072083 C-35.72886865 49.21501561 -35.73784444 47.0192562 -35.75989914 44.8236599 C-35.88986206 31.02322514 -35.35955191 20.67985102 -25.59150124 10.00033283 C-18.19524536 2.69830414 -10.24789344 -0.10437483 0 0 Z " fill="#FEFEFE" transform="translate(640.8850860595703,1318.4920654296875)"/>
<path d="M0 0 C0.33 0 0.66 0 1 0 C1.10189485 7.6496231 1.17167286 15.29906945 1.21972656 22.94921875 C1.2397713 25.54856914 1.26701447 28.14787483 1.30175781 30.74707031 C1.35058865 34.4955553 1.37304126 38.24344111 1.390625 41.9921875 C1.41127014 43.14363251 1.43191528 44.29507751 1.45318604 45.48141479 C1.45640189 57.19410438 -2.57563174 67.04295799 -10.5546875 75.68359375 C-19.71675377 84.122339 -29.17579239 87.1497193 -41.30363464 87.14717102 C-42.71441024 87.15268605 -42.71441024 87.15268605 -44.15368634 87.1583125 C-47.30713433 87.1693309 -50.46054934 87.17319005 -53.61401367 87.17700195 C-55.87436019 87.18326795 -58.13470568 87.18991487 -60.39505005 87.19691467 C-67.81934901 87.21793965 -75.24364814 87.22831498 -82.66796875 87.23828125 C-85.22499413 87.24232926 -87.78201941 87.2464462 -90.33904457 87.25063133 C-100.97553228 87.26749698 -111.61201659 87.28213204 -122.24851513 87.28938007 C-125.00625294 87.29128981 -127.76399074 87.29321017 -130.52172852 87.29516602 C-131.54980062 87.29589163 -131.54980062 87.29589163 -132.59864185 87.2966319 C-143.69787915 87.30492977 -154.79700861 87.3302648 -165.89619883 87.36274669 C-177.30275974 87.39585486 -188.70924021 87.41349966 -200.11585408 87.41702431 C-206.51573064 87.41937419 -212.91543658 87.42832709 -219.31526756 87.45348549 C-225.33748041 87.47677743 -231.35941042 87.4809947 -237.38165665 87.47072411 C-239.58828612 87.47022893 -241.79492957 87.4765439 -244.00151634 87.49028015 C-247.02183012 87.50802557 -250.04113174 87.50087947 -253.06144714 87.48774719 C-254.36085221 87.50420106 -254.36085221 87.50420106 -255.68650788 87.52098733 C-266.53995813 87.40761756 -275.43249712 82.61978269 -283 75 C-285.36411338 71.81964537 -287.27465555 68.56356189 -289 65 C-289.51481934 64.05382813 -290.02963867 63.10765625 -290.56005859 62.1328125 C-292.84611601 56.73374939 -292.36942844 51.04748153 -292.29296875 45.28515625 C-292.28872391 44.07427841 -292.28447906 42.86340057 -292.28010559 41.61582947 C-292.26336989 37.76448943 -292.22572572 33.91368077 -292.1875 30.0625 C-292.17244662 27.44466904 -292.15875936 24.82682984 -292.14648438 22.20898438 C-292.11348299 15.80580958 -292.06333386 9.40294277 -292 3 C-289.63285246 5.36714754 -288.75628826 7.5769058 -287.375 10.625 C-283.05193777 19.37605316 -277.25043566 25.56023716 -268 29 C-265.22742585 29.79708201 -262.75843508 30.12863885 -259.87683296 30.14260101 C-259.05890459 30.14890895 -258.24097622 30.15521689 -257.39826214 30.16171598 C-256.05850443 30.16450898 -256.05850443 30.16450898 -254.69168091 30.1673584 C-253.73850633 30.17315178 -252.78533174 30.17894517 -251.80327308 30.18491411 C-248.60078723 30.20298971 -245.398319 30.21385017 -242.19580078 30.22460938 C-239.9026829 30.23578442 -237.60956664 30.24729774 -235.31645203 30.25912476 C-227.77609532 30.2956951 -220.23572187 30.3209075 -212.6953125 30.34375 C-210.77000332 30.3496688 -210.77000332 30.3496688 -208.80579901 30.35570717 C-196.69596587 30.39213257 -184.5861289 30.42372447 -172.47625923 30.44481659 C-169.67232372 30.44978547 -166.86838835 30.45482984 -164.06445312 30.45996094 C-163.36759301 30.46123161 -162.67073289 30.46250228 -161.95275579 30.46381146 C-150.68146595 30.48514005 -139.41046897 30.53410502 -128.13932623 30.59420508 C-116.55198227 30.65547839 -104.96480492 30.68946991 -93.37730205 30.6992898 C-86.87763686 30.70553789 -80.37850996 30.72357757 -73.87900162 30.77067566 C-67.75732556 30.81448519 -61.63647952 30.82478581 -55.51467323 30.81004715 C-53.27583512 30.81037462 -51.0369602 30.8225579 -48.79826546 30.84789658 C-34.69602292 30.99900159 -22.99923614 30.57699087 -12.23695564 20.38280487 C-6.39639617 14.16144165 -2.81174479 8.07136151 0 0 Z " fill="#146252" transform="translate(1398,1573)"/>
<path d="M0 0 C0.33 0 0.66 0 1 0 C1.10189485 7.6496231 1.17167286 15.29906945 1.21972656 22.94921875 C1.2397713 25.54856914 1.26701447 28.14787483 1.30175781 30.74707031 C1.35058865 34.4955553 1.37304126 38.24344111 1.390625 41.9921875 C1.41127014 43.14363251 1.43191528 44.29507751 1.45318604 45.48141479 C1.45640189 57.19410438 -2.57563174 67.04295799 -10.5546875 75.68359375 C-19.71675377 84.122339 -29.17579239 87.1497193 -41.30363464 87.14717102 C-42.71441024 87.15268605 -42.71441024 87.15268605 -44.15368634 87.1583125 C-47.30713433 87.1693309 -50.46054934 87.17319005 -53.61401367 87.17700195 C-55.87436019 87.18326795 -58.13470568 87.18991487 -60.39505005 87.19691467 C-67.81934901 87.21793965 -75.24364814 87.22831498 -82.66796875 87.23828125 C-85.22499413 87.24232926 -87.78201941 87.2464462 -90.33904457 87.25063133 C-100.97553228 87.26749698 -111.61201659 87.28213204 -122.24851513 87.28938007 C-125.00625294 87.29128981 -127.76399074 87.29321017 -130.52172852 87.29516602 C-131.54980062 87.29589163 -131.54980062 87.29589163 -132.59864185 87.2966319 C-143.69787915 87.30492977 -154.79700861 87.3302648 -165.89619883 87.36274669 C-177.30275974 87.39585486 -188.70924021 87.41349966 -200.11585408 87.41702431 C-206.51573064 87.41937419 -212.91543658 87.42832709 -219.31526756 87.45348549 C-225.33748041 87.47677743 -231.35941042 87.4809947 -237.38165665 87.47072411 C-239.58828612 87.47022893 -241.79492957 87.4765439 -244.00151634 87.49028015 C-247.02183012 87.50802557 -250.04113174 87.50087947 -253.06144714 87.48774719 C-254.36085221 87.50420106 -254.36085221 87.50420106 -255.68650788 87.52098733 C-266.53995813 87.40761756 -275.43249712 82.61978269 -283 75 C-285.36411338 71.81964537 -287.27465555 68.56356189 -289 65 C-289.51481934 64.05382813 -290.02963867 63.10765625 -290.56005859 62.1328125 C-292.84611601 56.73374939 -292.36942844 51.04748153 -292.29296875 45.28515625 C-292.28872391 44.07427841 -292.28447906 42.86340057 -292.28010559 41.61582947 C-292.26336989 37.76448943 -292.22572572 33.91368077 -292.1875 30.0625 C-292.17244662 27.44466904 -292.15875936 24.82682984 -292.14648438 22.20898438 C-292.11348299 15.80580958 -292.06333386 9.40294277 -292 3 C-289.63285246 5.36714754 -288.75628826 7.5769058 -287.375 10.625 C-283.05193777 19.37605316 -277.25043566 25.56023716 -268 29 C-265.22742585 29.79708201 -262.75843508 30.12863885 -259.87683296 30.14260101 C-259.05890459 30.14890895 -258.24097622 30.15521689 -257.39826214 30.16171598 C-256.05850443 30.16450898 -256.05850443 30.16450898 -254.69168091 30.1673584 C-253.73850633 30.17315178 -252.78533174 30.17894517 -251.80327308 30.18491411 C-248.60078723 30.20298971 -245.398319 30.21385017 -242.19580078 30.22460938 C-239.9026829 30.23578442 -237.60956664 30.24729774 -235.31645203 30.25912476 C-227.77609532 30.2956951 -220.23572187 30.3209075 -212.6953125 30.34375 C-210.77000332 30.3496688 -210.77000332 30.3496688 -208.80579901 30.35570717 C-196.69596587 30.39213257 -184.5861289 30.42372447 -172.47625923 30.44481659 C-169.67232372 30.44978547 -166.86838835 30.45482984 -164.06445312 30.45996094 C-163.36759301 30.46123161 -162.67073289 30.46250228 -161.95275579 30.46381146 C-150.68146595 30.48514005 -139.41046897 30.53410502 -128.13932623 30.59420508 C-116.55198227 30.65547839 -104.96480492 30.68946991 -93.37730205 30.6992898 C-86.87763686 30.70553789 -80.37850996 30.72357757 -73.87900162 30.77067566 C-67.75732556 30.81448519 -61.63647952 30.82478581 -55.51467323 30.81004715 C-53.27583512 30.81037462 -51.0369602 30.8225579 -48.79826546 30.84789658 C-34.69602292 30.99900159 -22.99923614 30.57699087 -12.23695564 20.38280487 C-6.39639617 14.16144165 -2.81174479 8.07136151 0 0 Z " fill="#146252" transform="translate(898,1573)"/>
<path d="M0 0 C0.33 0 0.66 0 1 0 C1.83374826 16.40429896 2.30600389 32.8014244 2.6484375 49.22265625 C2.70570765 51.87867755 2.7631824 54.53469364 2.82093811 57.19070435 C2.92811491 62.13241523 3.03422822 67.07414716 3.13913256 72.01590681 C3.32883096 80.95148454 3.52464951 89.88691659 3.72297084 98.82230675 C4.35512946 127.32367098 4.9686359 155.82513247 5.50113559 184.32855147 C5.5157462 185.11033289 5.5303568 185.8921143 5.54541016 186.69758606 C5.56726848 187.86718478 5.56726848 187.86718478 5.58956838 189.06041175 C5.77639406 199.01907109 5.97598911 208.97747957 6.17694473 218.93586254 C6.33874779 226.98757417 6.48861547 235.03934118 6.62346298 243.09154987 C6.72777201 249.2558845 6.85148742 255.41969359 6.98214531 261.5835228 C7.03232521 264.10041044 7.07609119 266.6174358 7.11281013 269.13455582 C7.31031247 294.47023872 7.31031247 294.47023872 19.84765625 315.84375 C27.07645873 321.70727169 35.07905915 323.45567869 44.22192383 323.38768005 C45.10531087 323.39306559 45.98869791 323.39845113 46.89885426 323.40399987 C49.83505832 323.41821507 52.77080745 323.41119173 55.70703125 323.40405273 C57.82181152 323.4097596 59.93658872 323.41672509 62.05136108 323.42485046 C67.7785671 323.44276028 73.50561972 323.44161773 79.23284531 323.43590808 C84.01920197 323.43281359 88.80552927 323.43891147 93.59188175 323.44494683 C104.88452162 323.45898283 116.17708582 323.45743797 127.46972656 323.44604492 C139.11060914 323.43455991 150.75126144 323.44864806 162.39211369 323.4754414 C172.39746502 323.4976061 182.40274411 323.50423416 192.40811825 323.49836498 C198.37920079 323.49499665 204.35013567 323.49740269 210.32119751 323.51461601 C215.93556967 323.53009559 221.54960077 323.52611805 227.1639595 323.50731087 C229.22103435 323.50362807 231.27813452 323.50672438 233.335186 323.51719666 C236.14987376 323.53042912 238.9634361 323.51883909 241.77807617 323.50120544 C242.58616635 323.51081045 243.39425653 323.52041546 244.2268343 323.53031152 C253.11236427 323.41628543 261.38941253 319.43870153 267.78125 313.28515625 C272.12301761 308.63983286 274.78567519 303.94154234 277 298 C277.33 298 277.66 298 278 298 C278.10554379 312.7501505 278.10550251 327.50308231 277.75 342.25 C277.73590088 343.3956543 277.72180176 344.54130859 277.70727539 345.72167969 C277.41119987 355.68340262 274.78930216 362.8656149 268 370.2109375 C264.69189273 373.17014283 260.9842422 375.09993625 257 377 C256.39542969 377.35320312 255.79085937 377.70640625 255.16796875 378.0703125 C249.5831528 380.46524258 243.20941548 380.15014328 237.22859192 380.15390015 C236.36944819 380.1582824 235.51030445 380.16266465 234.62512606 380.1671797 C231.75895214 380.18048715 228.8928089 380.18672828 226.02661133 380.19287109 C223.96625635 380.20077828 221.90590273 380.20904761 219.84555054 380.21765137 C213.09105742 380.24379528 206.33655834 380.25916916 199.58203125 380.2734375 C197.25226017 380.2787999 194.92248913 380.28417741 192.59271812 380.28956985 C182.89977587 380.31118538 173.20683524 380.32992127 163.51387501 380.34119225 C149.64423284 380.35742909 135.77487086 380.39061606 121.90533429 380.44759309 C112.14033057 380.48633549 102.37540167 380.50582991 92.61032313 380.51111281 C86.78380232 380.51475966 80.95758089 380.52671115 75.13114357 380.55921555 C69.64727205 380.58937245 64.16387992 380.59558065 58.67994308 380.58383179 C56.67410046 380.58361171 54.66823508 380.59186196 52.66246986 380.60948563 C39.41715293 380.71947616 28.63248087 380.1130191 18.125 371.0625 C8.18812991 360.2764792 6.94173917 347.02474892 6.51757812 333.07080078 C6.45923042 331.28474741 6.45923042 331.28474741 6.39970398 329.46261215 C6.2943423 326.18785856 6.19289799 322.91301645 6.09396935 319.63806295 C6.03069493 317.55201271 5.9660775 315.46600773 5.90113831 313.3800087 C4.90402533 281.23957909 4.25307125 249.0928324 3.63613981 216.94325072 C3.35715575 202.41769915 3.06740793 187.8923559 2.77823853 173.36700416 C2.73062361 170.97263108 2.68316884 168.57825487 2.63574791 166.18387794 C2.25333158 146.89362757 1.84526994 127.60447924 1.36328125 108.31640625 C1.33906349 107.34583471 1.31484573 106.37526318 1.2898941 105.37528038 C1.1749676 100.78008481 1.05914814 96.18491223 0.94281006 91.5897522 C0.17001531 61.05213999 -0.29917032 30.54989229 0 0 Z " fill="#156353" transform="translate(605,841)"/>
<path d="M0 0 C0.33 0 0.66 0 1 0 C1.79827284 15.97658752 2.23129637 31.94417986 2.50849152 47.93760681 C2.58003843 51.95108528 2.6582962 55.96437309 2.73968506 59.97766113 C2.75357655 60.66352027 2.76746804 61.34937942 2.78178048 62.05602217 C2.82448102 64.15974581 2.86730402 66.26346694 2.91015625 68.3671875 C3.08520064 76.96237313 3.25397611 85.55751854 3.39599609 94.15332031 C3.5007654 100.49063474 3.62240002 106.82738275 3.763129 113.16400385 C3.83645347 116.49363051 3.89917496 119.82259655 3.94632721 123.15275574 C3.86777448 147.21698941 3.86777448 147.21698941 14.265625 168.35546875 C21.87798383 175.57349368 29.52109644 178.30664687 39.84770203 178.26742554 C41.16682098 178.27422221 41.16682098 178.27422221 42.5125888 178.28115618 C45.45335186 178.29379563 48.39392961 178.29218009 51.3347168 178.29052734 C53.44580829 178.29651296 55.55689759 178.30331858 57.66798401 178.31088257 C63.39960117 178.3285485 69.13115861 178.33323826 74.86280036 178.33451414 C78.44595761 178.33593621 82.0290997 178.34020691 85.61225319 178.34550858 C98.11936023 178.36401232 110.62642465 178.37217894 123.13354492 178.37060547 C134.78056412 178.36940467 146.42739782 178.39049412 158.07437009 178.4220928 C168.08223232 178.44827408 178.09003405 178.45897195 188.09793025 178.45769465 C194.07136703 178.45718547 200.04463903 178.46284416 206.01804161 178.48405075 C211.63975236 178.50346362 217.26114169 178.50353654 222.882864 178.48901749 C224.94071423 178.48693194 226.99858473 178.49161502 229.0564003 178.5037384 C242.69677954 178.57886338 255.33264361 178.38098999 265.7734375 168.28515625 C270.12657621 163.6473186 272.78536599 158.942372 275 153 C275.33 153 275.66 153 276 153 C276.06354055 162.3111344 276.06952019 171.62081314 276.01245117 180.9319458 C276.00045451 182.92450888 275.99138064 184.91708891 275.98242188 186.90966797 C275.95412794 190.52421817 275.88949761 194.13619477 275.8125 197.75 C275.80677979 198.83579346 275.80105957 199.92158691 275.79516602 201.0402832 C275.52585506 210.60940127 272.22332871 218.39284691 265.7265625 225.47265625 C257.97889755 232.32635986 248.17752655 235.46607336 238.01895142 235.38095093 C237.14937502 235.3856309 236.27979863 235.39031087 235.38387144 235.39513266 C232.48834087 235.4070385 229.59328746 235.39764265 226.69775391 235.38818359 C224.61430079 235.39225131 222.53084984 235.39759431 220.44740295 235.40411377 C214.80063715 235.41777098 209.1540361 235.41249478 203.50726748 235.40297651 C197.5902389 235.39536968 191.67322422 235.40242856 185.75619507 235.40713501 C175.81823196 235.41259042 165.88033576 235.40540743 155.94238281 235.39111328 C144.46573601 235.37479621 132.98924918 235.38006935 121.51260626 235.3965925 C111.64823752 235.41022416 101.78391684 235.41211853 91.91954172 235.40427649 C86.03283784 235.39960807 80.14620904 235.3989521 74.25951004 235.40888596 C68.72234329 235.41757743 63.18538189 235.41149377 57.64823723 235.39420319 C55.62061211 235.39024961 53.59296959 235.39135295 51.56535149 235.39799118 C26.4177264 235.47270586 26.4177264 235.47270586 16 226 C15.45472656 225.50886719 14.90945313 225.01773437 14.34765625 224.51171875 C1.171156 210.99993859 2.94676535 188.58644873 2.61108398 171.20068359 C2.58165459 169.80186391 2.55194167 168.40305017 2.52197266 167.00424194 C2.44244617 163.25075136 2.36711183 159.49718822 2.29281878 155.74359083 C2.22958969 152.57009045 2.16419184 149.39663616 2.09881264 146.22317946 C1.94380255 138.69816172 1.79217407 131.17308125 1.64282227 123.64794922 C1.5076345 116.83862963 1.36897971 110.02939215 1.22680664 103.22021484 C-0.29936231 30.08000457 -0.29936231 30.08000457 0 0 Z " fill="#146252" transform="translate(1107,985)"/>
<path d="M0 0 C0.33 0 0.66 0 1 0 C1.19591869 51.08146621 1.19591869 51.08146621 0.42382812 67.97094727 C0.01388452 76.98338886 -0.19692695 85.99272787 -0.38137817 95.01199341 C-0.79506418 115.19442688 -1.40531067 135.36843869 -2.06703949 155.54397583 C-2.7076262 175.08913568 -3.28178071 194.63326024 -3.65820312 214.18554688 C-3.83713458 223.23525798 -4.11392679 232.27571539 -4.46875 241.3203125 C-4.89731054 252.34993035 -5.2057416 263.37946279 -5.46484375 274.4140625 C-5.48388449 275.22213348 -5.50292522 276.03020447 -5.52254295 276.86276245 C-5.60105528 280.20165992 -5.67913324 283.54056722 -5.75673008 286.87948608 C-6.51728599 319.60283605 -7.46204326 352.30234745 -9 385 C-9.33 385 -9.66 385 -10 385 C-10.24916178 360.68300029 -9.92889659 336.39769854 -9.23046875 312.08984375 C-9.21069536 311.40095676 -9.19092197 310.71206977 -9.17054939 310.00230742 C-8.91895699 301.26652934 -8.65754377 292.53105438 -8.39360833 283.79564178 C-7.99072992 270.44077285 -7.60708232 257.0853295 -7.22117615 243.7299614 C-7.128379 240.51873368 -7.03529664 237.30751443 -6.94197083 234.09630203 C-6.02668051 202.58712955 -5.22659809 171.07582944 -4.46700668 139.56255341 C-4.19925275 128.46742281 -3.92837952 117.37236781 -3.65625 106.27734375 C-3.62802343 105.12640984 -3.59979687 103.97547592 -3.57071495 102.78966522 C-3.07559829 82.65114213 -2.5414529 62.51403624 -1.93677521 42.37849426 C-1.87640017 40.35932702 -1.81718413 38.34012522 -1.75799561 36.32092285 C-1.03187556 11.73255911 -1.03187556 11.73255911 0 0 Z " fill="#2A7B6A" transform="translate(898,565)"/>
<path d="M0 0 C0.33 0 0.66 0 1 0 C1.24786858 26.60392542 0.97192298 53.16000197 0.0625 79.75 C0.03944038 80.42458881 0.01638077 81.09917763 -0.00737762 81.79420853 C-0.21452233 87.84148983 -0.42332702 93.88871413 -0.63330078 99.93589783 C-1.01092483 110.95592028 -1.27928106 121.97588407 -1.5 133 C-1.89058032 152.21113921 -2.50449605 171.41379946 -3.13525391 190.6182251 C-3.68486322 207.36908831 -4.16738944 224.11830247 -4.5 240.875 C-4.96464876 264.26407345 -5.96844236 287.6300391 -7 311 C-7.33 311 -7.66 311 -8 311 C-8.24916182 286.68299554 -7.92878946 262.39770439 -7.23046875 238.08984375 C-7.21068616 237.40040444 -7.19090356 236.71096513 -7.1705215 236.00063372 C-6.91890673 227.26040165 -6.65750364 218.52047178 -6.39335781 209.78061068 C-5.96845684 195.70377613 -5.56298502 181.62636042 -5.15541339 167.54901552 C-5.08587708 165.1502596 -5.01609111 162.75151105 -4.94624519 160.35276413 C-4.27372637 137.2377846 -3.65946172 114.12193082 -3.1015625 91.00390625 C-3.06691733 89.57257508 -3.0322653 88.14124408 -2.99760628 86.70991325 C-2.67069497 73.19525191 -2.35032589 59.68045298 -2.04012299 46.16539669 C-1.92707196 41.27270246 -1.81080844 36.38008796 -1.69384384 31.48748589 C-1.61555216 28.15904411 -1.54197164 24.83052024 -1.46853638 21.50196838 C-1.42110774 19.51302454 -1.37342492 17.52408674 -1.32543945 15.53515625 C-1.30725757 14.64804427 -1.28907568 13.76093229 -1.27034283 12.84693813 C-1.15930615 8.47093489 -0.85973898 4.30900575 0 0 Z " fill="#297A69" transform="translate(1402,425)"/>
<path d="M0 0 C0.33 0 0.66 0 1 0 C1.78348137 16.0668983 2.2732095 32.13107775 2.63075256 48.21269417 C2.72100786 52.26144104 2.81451364 56.31010104 2.90905762 60.35874939 C3.17678512 71.84981528 3.43881719 83.34100826 3.69775391 94.83227539 C3.84184389 101.22519202 3.98902665 107.61803027 4.13948298 114.0108003 C4.21850808 117.37525944 4.29586972 120.73973883 4.36924744 124.10432625 C4.45126958 127.83666034 4.5385274 131.56883832 4.62695312 135.30102539 C4.64983902 136.40281128 4.67272491 137.50459717 4.69630432 138.63977051 C4.81686957 143.5173932 4.99272118 148.20578489 6 153 C5.34 153 4.68 153 4 153 C4 163.89 4 174.78 4 186 C3.67 186 3.34 186 3 186 C2.60396656 167.35958443 2.21263581 148.71907539 1.82654572 130.07845116 C1.64707722 121.41862815 1.46620546 112.75883918 1.28173828 104.09912109 C1.12051134 96.53022183 0.962214 88.96126723 0.80709887 81.39224017 C0.72526649 77.40369393 0.64219712 73.41518434 0.55558777 69.42673874 C0.05428041 46.28178844 -0.08268846 23.15017863 0 0 Z " fill="#338070" transform="translate(1107,985)"/>
<path d="M0 0 C0.33 0 0.66 0 1 0 C1.30710379 36.39416197 0.48533455 72.63885487 -1 109 C-1.33 109 -1.66 109 -2 109 C-2.06203104 100.02090096 -2.10224307 91.04178355 -2.125 82.0625 C-2.12671204 81.39180984 -2.12842407 80.72111969 -2.13018799 80.03010559 C-2.19033812 53.31442359 -1.3814925 26.68191103 0 0 Z " fill="#257767" transform="translate(1385,1028)"/>
<path d="M0 0 C0.33 0 0.66 0 1 0 C1.02505615 0.56920166 1.0501123 1.13840332 1.07592773 1.72485352 C1.19293894 4.33757313 1.3151828 6.95002362 1.4375 9.5625 C1.47681641 10.45775391 1.51613281 11.35300781 1.55664062 12.27539062 C1.79332783 17.2458219 2.19821672 22.08823519 3 27 C2.34 27 1.68 27 1 27 C1 34.59 1 42.18 1 50 C0.67 50 0.34 50 0 50 C0 33.5 0 17 0 0 Z " fill="#1D7764" transform="translate(611,1112)"/>
<path d="M0 0 C0.33 0 0.66 0 1 0 C1.06058594 0.72445313 1.12117188 1.44890625 1.18359375 2.1953125 C1.61483433 7.17116533 2.07047641 12.08680391 3 17 C2.34 17 1.68 17 1 17 C1 27.89 1 38.78 1 50 C0.67 50 0.34 50 0 50 C0 33.5 0 17 0 0 Z " fill="#1D7E6A" transform="translate(1110,1121)"/>
</svg>
